# xmcd CD database file
#
# Track frame offsets:
#	150
#	24750
#	48375
#	74550
#	98625
#	121125
#	139950
#	164700
#	189825
#	216000
#	242625
#
# Disc length: 3573 seconds
#
# Revision: 1
# Processed by: cddbd v1.5.1PL2 Copyright (c) Steve Scherf et al.
# Submitted via: freeDBTagger 0.5
#
DISCID=950df30b
DTITLE=平井堅 - 歌バカ disk-1
DYEAR=2005
DGENRE=blues
TTITLE0=Precious Junkk
TTITLE1=片方ずつのイヤフォン
TTITLE2=横顔
TTITLE3=ドシャブリ
TTITLE4=Stay With Me
TTITLE5=HEAT UP
TTITLE6=LOVE LOVE LOVE
TTITLE7=楽園
TTITLE8=why
TTITLE9=LOVE OR LUST
TTITLE10=even if
EXTD=
EXTT0=
EXTT1=
EXTT2=
EXTT3=
EXTT4=
EXTT5=
EXTT6=
EXTT7=
EXTT8=
EXTT9=
EXTT10=
PLAYORDER=
